<svg width="2000" height="944" viewBox="0 0 2000 944" fill="none" xmlns="http://www.w3.org/2000/svg">
  <g clip-path="url(#clip0_207_46)">
    <path d="M497.57 662.76C512.509 636.516 520.344 606.828 520.3 576.63V305.47C520.3 259.241 501.937 214.905 469.25 182.214C436.563 149.523 392.229 131.155 346 131.15H174.33C151.437 131.149 128.768 135.657 107.618 144.416C86.4669 153.176 67.2488 166.016 51.0607 182.204C34.8725 198.391 22.0313 217.608 13.2703 238.758C4.50925 259.908 -3.76683e-08 282.577 0 305.47L0 576.63C0 622.865 18.3669 667.207 51.0601 699.9C83.7533 732.593 128.095 750.96 174.33 750.96H346C380.917 751.012 415.037 740.529 443.9 720.88L502.48 779.16L558.38 723.26L497.57 662.76ZM436.25 566.83C436.251 579.882 433.682 592.806 428.688 604.864C423.694 616.923 416.374 627.879 407.146 637.109C397.917 646.338 386.961 653.659 374.903 658.654C362.845 663.649 349.922 666.22 336.87 666.22H183.43C170.378 666.22 157.455 663.649 145.397 658.654C133.339 653.659 122.383 646.338 113.154 637.109C103.926 627.879 96.6057 616.923 91.612 604.864C86.6183 592.806 84.0487 579.882 84.05 566.83V315.32C84.0487 302.269 86.6183 289.345 91.6122 277.287C96.606 265.229 103.926 254.273 113.155 245.045C122.383 235.816 133.339 228.496 145.397 223.502C157.455 218.508 170.379 215.939 183.43 215.94H336.87C349.921 215.939 362.845 218.508 374.903 223.502C386.961 228.496 397.917 235.816 407.145 245.045C416.374 254.273 423.694 265.229 428.688 277.287C433.682 289.345 436.251 302.269 436.25 315.32V566.83Z" fill="#DC1964"/>
    <path d="M260.15 58.37C269.126 58.376 277.765 61.7846 284.327 67.9085C290.889 74.0324 294.885 82.4163 295.51 91.37H358.85V87.95C358.837 64.6283 349.566 42.2655 333.075 25.7746C316.584 9.28364 294.222 0.0132472 270.9 0H249.4C226.07 -3.76588e-06 203.694 9.26453 187.192 25.7569C170.691 42.2493 161.413 64.6196 161.4 87.95V91.32H224.74C225.378 82.3666 229.386 73.9879 235.958 67.8732C242.529 61.7584 251.174 58.3625 260.15 58.37V58.37Z" fill="#DC1964"/>
    <path d="M2000 131.15H1919.24V750.96H2000V131.15Z" fill="#6B36E6"/>
    <path d="M1711.91 313.23H1620.06C1580.83 313.23 1543.22 328.812 1515.48 356.549C1487.74 384.286 1472.16 421.904 1472.16 461.13V943.64H1551.23V733.96C1572.44 745.152 1596.07 750.989 1620.06 750.96H1711.91C1751.14 750.96 1788.75 735.378 1816.49 707.641C1844.23 679.904 1859.81 642.285 1859.81 603.06V461.13C1859.81 421.904 1844.23 384.286 1816.49 356.549C1788.75 328.812 1751.14 313.23 1711.91 313.23V313.23ZM1780.75 589.01C1780.75 610.803 1772.09 631.703 1756.68 647.113C1741.27 662.523 1720.37 671.18 1698.58 671.18H1633.39C1611.6 671.177 1590.7 662.519 1575.29 647.109C1559.89 631.7 1551.23 610.801 1551.23 589.01V475.18C1551.23 453.389 1559.89 432.49 1575.29 417.081C1590.7 401.671 1611.6 393.013 1633.39 393.01H1698.58C1709.37 393.01 1720.06 395.135 1730.03 399.265C1739.99 403.394 1749.05 409.447 1756.68 417.077C1764.31 424.707 1770.37 433.766 1774.5 443.735C1778.62 453.704 1780.75 464.389 1780.75 475.18V589.01Z" fill="#6B36E6"/>
    <path d="M1264.83 313.23H1173C1133.78 313.233 1096.16 328.816 1068.43 356.552C1040.69 384.289 1025.11 421.906 1025.11 461.13V603.06C1025.11 642.284 1040.69 679.901 1068.43 707.638C1096.16 735.374 1133.78 750.957 1173 750.96H1264.85C1289.49 750.978 1313.74 744.833 1335.4 733.084C1357.06 721.335 1375.43 704.355 1388.85 683.69L1317.74 637.69C1310.12 648.078 1300.15 656.523 1288.65 662.34C1277.15 668.157 1264.45 671.182 1251.56 671.17H1186.37C1164.58 671.167 1143.68 662.509 1128.27 647.099C1112.87 631.69 1104.21 610.791 1104.21 589V571.23H1412.79V461.13C1412.79 441.702 1408.96 422.465 1401.53 404.517C1394.09 386.569 1383.19 370.262 1369.45 356.528C1355.71 342.793 1339.4 331.9 1321.45 324.471C1303.5 317.042 1284.26 313.222 1264.83 313.23V313.23ZM1333.67 500.52H1104.15V475.18C1104.15 453.389 1112.81 432.49 1128.21 417.081C1143.62 401.671 1164.52 393.013 1186.31 393.01H1251.5C1262.29 393.01 1272.98 395.135 1282.95 399.265C1292.91 403.394 1301.97 409.447 1309.6 417.077C1317.23 424.707 1323.29 433.766 1327.42 443.735C1331.54 453.704 1333.67 464.389 1333.67 475.18V500.52Z" fill="#6B36E6"/>
    <path d="M817.75 313.23H725.9C686.675 313.23 649.056 328.812 621.319 356.549C593.582 384.286 578 421.904 578 461.13V603.06C578 642.285 593.582 679.904 621.319 707.641C649.056 735.378 686.675 750.96 725.9 750.96H817.75C842.389 750.978 866.642 744.833 888.299 733.084C909.957 721.335 928.331 704.355 941.75 683.69L870.64 637.69C863.015 648.078 853.05 656.523 841.552 662.34C830.053 668.157 817.346 671.182 804.46 671.17H739.24C717.447 671.17 696.547 662.513 681.137 647.103C665.727 631.693 657.07 610.793 657.07 589V571.23H965.65V461.13C965.65 421.904 950.068 384.286 922.331 356.549C894.594 328.812 856.976 313.23 817.75 313.23V313.23ZM886.59 500.52H657.07V475.18C657.07 464.389 659.195 453.704 663.325 443.735C667.454 433.766 673.507 424.707 681.137 417.077C688.767 409.447 697.826 403.394 707.795 399.265C717.764 395.135 728.449 393.01 739.24 393.01H804.42C815.211 393.01 825.896 395.135 835.865 399.265C845.834 403.394 854.893 409.447 862.523 417.077C870.153 424.707 876.206 433.766 880.335 443.735C884.465 453.704 886.59 464.389 886.59 475.18V500.52Z" fill="#6B36E6"/>
  </g>
  <defs>
    <clipPath id="clip0_207_46">
      <rect width="2000" height="943.65" fill="white"/>
    </clipPath>
  </defs>
</svg>
